<svg xmlns="http://www.w3.org/2000/svg" fill="none" viewBox="10.26 7.08 183.49 177.44">
<path d="M119.046 13.6205L180.786 58.4778C190.951 65.8624 195.204 78.9521 191.321 90.9007L167.738 163.481C163.856 175.43 152.721 183.52 140.158 183.52H63.8422C51.2786 183.52 40.1439 175.43 36.2615 163.481L12.6787 90.9007C8.79635 78.9521 13.0494 65.8624 23.2136 58.4778L84.9542 13.6205C95.1184 6.23587 108.882 6.23587 119.046 13.6205Z" fill="#EDA5A5" stroke="#FFFCE8" stroke-width="2"/>
<path d="M102.848 126H86.864L93.488 94.896L76.424 126H66.632L63.392 93.816L56.48 126H50L59.72 80.28H78.08L80.312 106.056L94.136 80.28H112.64L102.848 126ZM112.291 109.08H125.827C125.827 109.224 125.755 109.584 125.611 110.16C125.515 110.688 125.395 111.336 125.251 112.104C125.107 112.872 124.963 113.712 124.819 114.624C124.723 115.536 124.675 116.376 124.675 117.144C124.675 117.624 124.723 118.128 124.819 118.656C124.915 119.184 125.083 119.688 125.323 120.168C125.563 120.6 125.899 120.984 126.331 121.32C126.811 121.608 127.387 121.752 128.059 121.752C129.307 121.752 130.291 121.248 131.011 120.24C131.779 119.184 132.451 117.288 133.027 114.552L140.299 80.28H155.923L148.867 113.328C148.243 116.16 147.163 118.464 145.627 120.24C144.091 121.968 142.315 123.312 140.299 124.272C138.331 125.232 136.219 125.856 133.963 126.144C131.707 126.48 129.547 126.648 127.483 126.648C125.083 126.648 123.019 126.48 121.291 126.144C119.563 125.856 118.027 125.424 116.683 124.848C115.387 124.272 114.211 123.576 113.155 122.76C112.099 121.896 111.043 120.96 109.987 119.952L112.291 109.08Z" fill="#3A3C3C"/>
</svg>